<svg 
 xmlns="http://www.w3.org/2000/svg"
 xmlns:xlink="http://www.w3.org/1999/xlink"
 width="20px" height="17px">
<path fill-rule="evenodd"  fill="rgb(223, 232, 250)"
 d="M5.999,14.998 L13.999,14.998 L13.999,16.998 L5.999,16.998 L5.999,14.998 Z"/>
<path fill-rule="evenodd"  fill="rgb(201, 213, 237)"
 d="M7.999,12.999 L11.999,12.999 L11.999,14.998 L7.999,14.998 L7.999,12.999 Z"/>
<path fill-rule="evenodd"  fill="rgb(225, 234, 252)"
 d="M0.999,2.998 C0.999,2.998 1.551,8.972 4.999,8.998 L4.999,9.998 C0.353,9.998 0.0,1.986 0.0,1.986 L2.999,1.998 L2.999,2.998 L0.999,2.998 Z"/>
<path fill-rule="evenodd"  fill="rgb(214, 225, 247)"
 d="M18.999,2.998 C18.999,2.998 18.447,8.972 14.999,8.998 L14.999,9.998 C20.353,9.998 19.999,1.986 19.999,1.986 L16.999,1.998 L16.999,2.998 L18.999,2.998 Z"/>
<path fill-rule="evenodd"  fill="rgb(225, 234, 252)"
 d="M15.622,7.862 C14.456,10.801 12.548,12.827 10.4,13.0 C7.460,12.827 5.552,10.801 4.386,7.862 C3.220,4.923 3.8,0.996 3.8,0.996 L9.368,0.996 L10.640,0.996 L17.0,0.996 C17.0,0.996 16.788,4.923 15.622,7.862 Z"/>
<path fill-rule="evenodd"  fill="rgb(214, 225, 247)"
 d="M15.622,7.862 C14.456,10.801 12.548,12.827 10.4,13.0 C10.2,13.0 10.1,13.0 9.999,12.999 L9.999,0.996 L10.640,0.996 L17.0,0.996 C17.0,0.996 16.788,4.923 15.622,7.862 Z"/>
<path fill-rule="evenodd"  fill="rgb(201, 213, 237)"
 d="M2.997,1.8 L2.997,1.988 L17.7,1.8 L12.127,1.8 L2.997,1.8 Z"/>
<path fill-rule="evenodd"  fill="rgb(225, 234, 252)"
 d="M2.236,0.1 L17.768,0.1 C17.898,0.1 18.3,0.100 18.3,0.224 L18.3,0.782 C18.3,0.905 17.898,1.6 17.768,1.6 L2.236,1.6 C2.106,1.6 2.1,0.905 2.1,0.782 L2.1,0.224 C2.1,0.100 2.106,0.1 2.236,0.1 Z"/>
<path fill-rule="evenodd"  fill="rgb(214, 225, 247)"
 d="M17.771,1.6 L10.3,1.6 L10.3,0.1 L17.771,0.1 C17.899,0.1 18.3,0.100 18.3,0.224 L18.3,0.782 C18.3,0.905 17.899,1.6 17.771,1.6 Z"/>
<path fill-rule="evenodd"  opacity="0.8" fill="rgb(255, 255, 255)"
 d="M6.999,0.0 L6.999,0.999 L5.999,0.999 L5.999,0.0 L6.999,0.0 Z"/>
<path fill-rule="evenodd"  opacity="0.8" fill="rgb(255, 255, 255)"
 d="M4.999,0.0 L4.999,0.999 L3.999,0.999 L3.999,0.0 L4.999,0.0 Z"/>
<path fill-rule="evenodd"  fill="rgb(255, 255, 255)"
 d="M13.350,3.2 C13.350,3.2 13.789,3.608 14.368,3.966 C14.956,4.330 15.999,4.398 15.999,4.398 C15.999,4.398 15.261,4.634 14.921,5.265 C14.587,5.885 14.652,6.999 14.652,6.999 C14.652,6.999 14.32,6.94 13.454,5.736 C12.866,5.371 12.3,5.505 12.3,5.505 C12.3,5.505 12.801,5.178 13.135,4.558 C13.475,3.927 13.350,3.2 13.350,3.2 Z"/>
</svg>
