<svg xmlns="http://www.w3.org/2000/svg">
  <symbol id="album" viewBox="0 0 18 22">
    <title>Album Icon</title>
    <path fill-rule="evenodd" d="M16.0,22.1 L2.0,22.1 C1.33,22.1 0.226,21.314 0.40,20.402 C0.13,20.272 0.0,20.137 0.0,19.998 L0.0,1.998 C0.0,0.893 0.895,0.1 1.999,0.1 L15.999,0.1 C16.966,0.1 17.773,0.684 17.959,1.597 C17.985,1.727 18.0,1.862 18.0,2.0 L18.0,20.0 C18.0,21.105 17.104,22.1 16.0,22.1 ZM16.0,15.998 L15.999,15.998 L15.999,2.0 L4.0,2.0 L4.0,1.998 L1.999,1.998 L1.999,4.1 L2.0,4.1 L2.0,19.998 L13.999,19.998 L13.999,20.0 L16.0,20.0 L16.0,15.998 ZM11.999,15.999 L13.999,15.999 L13.999,17.999 L11.999,17.999 L11.999,15.999 ZM3.999,3.999 L13.999,3.999 L13.999,13.999 L3.999,13.999 L3.999,3.999 ZM5.999,11.999 L11.999,11.999 L11.999,5.999 L5.999,5.999 L5.999,11.999 ZM5.999,17.999 L3.999,17.999 L3.999,15.999 L5.999,15.999 L5.999,17.999 ZM9.999,17.999 L7.999,17.999 L7.999,15.999 L9.999,15.999 L9.999,17.999 Z"/>
  </symbol>
	<symbol id="helmet" viewBox="0 0 28 28">
    <path d="M12 23C12 23.552 12.447 24 13 24H15C15.552 24 16 23.552 16 23C16 22.447 15.552 22 15 22H13C12.447 22 12 22.447 12 23Z" />
		<path d="M28 8L25.703 8.574C24.888 4.769 22.355 1.621 18.962 0.045C18.896 0.015 18.831 0 18.765 0C18.265 0 17.746 0.842 17.214 1.939C16.284 1.347 15.184 1 14 1C12.815 1 11.713 1.348 10.784 1.941C10.251 0.843 9.732 0.00199997 9.231 0.00199997C9.165 0.00199997 9.099 0.0170001 9.033 0.0470001C5.642 1.624 3.112 4.771 2.297 8.574L0 8V16H2.671L3 18.354C3 21.178 3.761 22 5.13 22C5.459 22 5.835 21.941 6.231 21.863C7.071 25.381 10.225 28 14 28C17.775 28 20.929 25.381 21.77 21.863C22.166 21.941 22.541 22 22.87 22C24.238 22 25 21.177 25 18.354L25.329 16H28V8ZM23.756 9.061L20.485 9.879L22.694 6.191C23.181 7.083 23.544 8.047 23.756 9.061ZM14 3C14.888 3 15.701 3.301 16.364 3.793C15.6 5.492 14.81 7.12 14 7.12C13.19 7.12 12.4 5.494 11.635 3.797C12.296 3.301 13.11 3 14 3ZM8.802 2.443C9.073 2.972 9.38 3.657 9.615 4.181C10.752 6.721 11.826 9.12 14.001 9.12C16.175 9.12 17.248 6.72 18.384 4.18C18.618 3.657 18.925 2.971 19.197 2.442C20.026 2.96 20.755 3.605 21.392 4.33L18 9.99L18.018 10H9.983L10 9.99L6.609 4.329C7.246 3.605 7.974 2.961 8.802 2.443ZM5.307 6.191L7.515 9.879L4.244 9.061C4.457 8.047 4.819 7.083 5.307 6.191ZM14 26C11.167 26 8.792 24.025 8.168 21.38C9.807 20.928 11.77 20.396 14 20.396C16.229 20.396 18.193 20.928 19.832 21.38C19.207 24.024 16.833 26 14 26ZM23.02 18.076L23 18.214V18.354C23 19.31 22.899 19.787 22.831 20C22.306 19.987 21.407 19.739 20.457 19.478C18.711 18.996 16.538 18.396 14 18.396C11.462 18.396 9.289 18.996 7.543 19.478C6.593 19.74 5.694 19.988 5.169 20C5.101 19.786 5 19.31 5 18.354V18.214L4.981 18.076L4.69 16H23.31L23.02 18.076ZM26 14H2V10.562L7.515 11.941L7.754 12H8H20H20.246L20.485 11.94L26 10.562V14Z" />
  </symbol>
	<symbol id="puck" viewBox="0 0 30 22">
		<path fill-rule="evenodd" clip-rule="evenodd" d="M3 18.5H5V9.5H3V18.5ZM7 13.5V20.5H9V13.5H7Z" fill="var(--color-icon)" />
		<path d="M30 6C29.999 2.686 23.284 0 15 0C6.716 0 0 2.687 0 6V14.822C0 19.256 7.786 22 15 22C22.214 22 30 19.256 30 14.822V6ZM15 2C23.577 2 28 4.805 28 6.001C28 7.197 23.577 10.001 15 10.001C6.423 10.001 2 7.198 2 6.001C2 4.804 6.423 2 15 2ZM15 20C7.679 20 2 17.217 2 14.822V8.985C4.589 10.785 9.435 12 15 12C20.564 12 25.411 10.785 28 8.985V14.822C28 17.217 22.321 20 15 20Z" fill="var(--color-icon)" />
	</symbol>
	<symbol id="tshirt" viewBox="0 0 30 26">
		<path fill-rule="evenodd" clip-rule="evenodd" d="M30 23L29 8C29 3.582 25.418 0 21 0H19H11H9C4.582 0 1 3.582 1 8L0 23H5.143L5 24.002C5 25.105 5.843 26 6.883 26H23.117C24.156 26 25 25.105 25 24.002L24.856 23H30ZM24.571 21L24 17H27.596L27.863 21H24.571ZM18.445 2C17.752 3.19 16.477 4 15 4C13.523 4 12.248 3.19 11.555 2H18.445ZM2.138 21L2.405 17H6L5.429 21H2.138ZM7.021 24L8.98 10.282L9 10.142V10H7L6.286 15H2.538L2.996 8.133L3 8.066V8C3 4.691 5.691 2 9 2H9.349C10.174 4.329 12.389 6 15 6C17.611 6 19.826 4.329 20.651 2H21C24.309 2 27 4.691 27 8V8.066L27.005 8.132L27.463 15H23.714L23 10H21V10.142L21.021 10.283L22.979 24H7.021Z" fill="var(--color-icon)" />
		<path fill-rule="evenodd" clip-rule="evenodd" d="M16 8H14C12.896 8 12 8.895 12 10V16C12 17.104 12.896 18 14 18H16C17.104 18 18 17.104 18 16V10C18 8.895 17.104 8 16 8ZM16 16H14V10H16V16Z" fill="var(--color-icon)"/>
	</symbol>
	<symbol id="photo-camera" viewBox="0 0 30 22">
		<path d="M20 2C20.708 2 21.35 2.376 21.717 3.006L22.296 4H23.445H26C27.103 4 28 4.897 28 6V18C28 19.103 27.103 20 26 20H4C2.897 20 2 19.103 2 18V6C2 4.897 2.897 4 4 4H6.555H7.705L8.283 3.006C8.65 2.376 9.292 2 10 2H20ZM20 0H10C8.523 0 7.248 0.809 6.555 2H4C1.791 2 0 3.791 0 6V18C0 20.209 1.791 22 4 22H26C28.209 22 30 20.209 30 18V6C30 3.791 28.209 2 26 2H23.445C22.752 0.809 21.477 0 20 0Z" fill="var(--color-icon)" />
		<path fill-rule="evenodd" clip-rule="evenodd" d="M15 6C11.686 6 9 8.686 9 12C9 15.315 11.687 18 15 18C18.313 18 21 15.314 21 12C21 8.686 18.313 6 15 6ZM15 16.004C12.791 16.004 11 14.213 11 12.004C11 9.795 12.791 8.004 15 8.004C17.209 8.004 19 9.795 19 12.004C19 14.213 17.209 16.004 15 16.004ZM15 10.003C13.896 10.003 13 10.898 13 12.003C13 13.107 13.896 14.003 15 14.003C16.104 14.003 17 13.107 17 12.003C17 10.898 16.104 10.003 15 10.003ZM24 8.003V10.003H28V8.003H24ZM26 14.004H28V12.004H26V14.004Z" fill="var(--color-icon)" />
	</symbol>
	<symbol id="search" viewBox="0 0 20 20">
		<path fill-rule="evenodd" clip-rule="evenodd" d="M19.693 18.216L16.078 14.601C18.884 11.064 18.656 5.90901 15.387 2.63901C11.867 -0.879994 6.16 -0.879994 2.64 2.63901C-0.88 6.15901 -0.88 11.865 2.64 15.383C5.909 18.653 11.061 18.881 14.598 16.077L18.215 19.693C18.622 20.102 19.284 20.102 19.693 19.693C20.102 19.285 20.102 18.624 19.693 18.216ZM9.011 16.017C5.144 16.017 2.009 12.882 2.009 9.01501C2.009 5.14801 5.144 2.01301 9.011 2.01301C12.879 2.01301 16.013 5.14801 16.013 9.01501C16.013 12.882 12.879 16.017 9.011 16.017ZM9.011 4.01301V6.01401C10.669 6.01401 12.012 7.35801 12.012 9.01501H14.012C14.013 6.25201 11.774 4.01301 9.011 4.01301Z" fill="var(--color-icon)"/>
	</symbol>
	<symbol id="bag" viewBox="0 0 25 31">
		<path fill-rule="evenodd" stroke="var(--color-icon)" stroke-width="2px" stroke-linecap="butt" stroke-linejoin="miter" fill="none" d="M5.249,5.983 L18.749,5.983 C19.992,5.983 20.999,6.980 20.999,8.207 L22.999,26.772 C22.999,27.999 21.992,28.995 20.749,28.995 L3.249,28.995 C2.7,28.995 0.999,27.999 0.999,26.772 L2.999,8.207 C2.999,6.980 4.7,5.983 5.249,5.983 Z"/>
		<path fill-rule="evenodd" stroke="var(--color-icon)" stroke-width="2px" stroke-linecap="butt" stroke-linejoin="miter" fill="none" d="M7.13,9.995 L7.13,5.299 C7.13,2.922 9.245,0.995 11.999,0.995 C14.753,0.995 16.986,2.922 16.986,5.299 L16.986,9.995 "/>
	</symbol>
</svg>
