<svg 
 xmlns="http://www.w3.org/2000/svg"
 xmlns:xlink="http://www.w3.org/1999/xlink"
 width="16px" height="18px">
<path fill-rule="evenodd"  fill="rgb(255, 215, 27)"
 d="M0.0,0.0 L15.999,0.0 L15.999,13.999 L7.999,17.999 L0.0,13.999 L0.0,0.0 Z"/>
<path fill-rule="evenodd"  fill="rgb(255, 180, 0)"
 d="M7.999,17.999 L7.999,0.0 L15.999,0.0 L15.999,14.999 L7.999,17.999 Z"/>
<path fill-rule="evenodd"  fill="rgb(122, 90, 255)"
 d="M1.999,1.999 L13.999,1.999 L13.999,11.999 L7.999,14.999 L1.999,11.999 L1.999,1.999 Z"/>
<path fill-rule="evenodd"  fill="rgb(87, 60, 203)"
 d="M7.999,14.999 L7.999,1.999 L13.999,1.999 L13.999,11.999 L7.999,14.999 Z"/>
<path fill-rule="evenodd"  fill="rgb(255, 255, 255)"
 d="M11.999,6.678 L11.984,6.692 L11.850,6.792 L9.756,8.391 L10.465,10.938 L10.478,10.970 L10.473,10.967 L10.478,10.984 L10.457,10.958 L7.999,9.572 L5.521,10.999 L5.545,10.968 L5.521,10.984 L6.227,8.391 L3.999,6.663 L4.34,6.673 L4.15,6.663 L6.901,6.490 L7.999,4.13 L7.999,3.998 L9.97,6.490 L9.96,6.492 L11.999,6.678 Z"/>
</svg>
